<?xml version="1.0" encoding="utf-8" standalone="no"?>
<!DOCTYPE svg PUBLIC "-//W3C//DTD SVG 1.1//EN"
  "http://www.w3.org/Graphics/SVG/1.1/DTD/svg11.dtd">
<!-- Created with matplotlib (https://matplotlib.org/) -->
<svg height="1264.9195pt" version="1.1" viewBox="0 0 2946.66725 1264.9195" width="2946.66725pt" xmlns="http://www.w3.org/2000/svg" xmlns:xlink="http://www.w3.org/1999/xlink">
 <metadata>
  <rdf:RDF xmlns:cc="http://creativecommons.org/ns#" xmlns:dc="http://purl.org/dc/elements/1.1/" xmlns:rdf="http://www.w3.org/1999/02/22-rdf-syntax-ns#">
   <cc:Work>
    <dc:type rdf:resource="http://purl.org/dc/dcmitype/StillImage"/>
    <dc:date>2020-12-14T16:59:26.259724</dc:date>
    <dc:format>image/svg+xml</dc:format>
    <dc:creator>
     <cc:Agent>
      <dc:title>Matplotlib v3.3.2, https://matplotlib.org/</dc:title>
     </cc:Agent>
    </dc:creator>
   </cc:Work>
  </rdf:RDF>
 </metadata>
 <defs>
  <style type="text/css">*{stroke-linecap:butt;stroke-linejoin:round;}</style>
 </defs>
 <g id="figure_1">
  <g id="patch_1">
   <path d="M 0 1264.9195 
L 2946.66725 1264.9195 
L 2946.66725 0 
L 0 0 
z
" style="fill:#ffffff;"/>
  </g>
  <g id="axes_1">
   <g id="patch_2">
    <path d="M 149.46725 918.2895 
L 2939.46725 918.2895 
L 2939.46725 102.8895 
L 149.46725 102.8895 
z
" style="fill:#ffffff;"/>
   </g>
   <g id="matplotlib.axis_1">
    <g id="xtick_1">
     <g id="line2d_1">
      <defs>
       <path d="M 0 0 
L 0 4.8 
" id="m481c3e38c9" style="stroke:#262626;"/>
      </defs>
      <g>
       <use style="fill:#262626;stroke:#262626;" x="211.250467" xlink:href="#m481c3e38c9" y="918.2895"/>
      </g>
     </g>
     <g id="text_1">
      <!-- 0 -->
      <g style="fill:#262626;" transform="translate(194.122779 970.681625)scale(0.616 -0.616)">
       <defs>
        <path d="M 4.15625 35.296875 
Q 4.15625 48 6.765625 55.734375 
Q 9.375 63.484375 14.515625 67.671875 
Q 19.671875 71.875 27.484375 71.875 
Q 33.25 71.875 37.59375 69.546875 
Q 41.9375 67.234375 44.765625 62.859375 
Q 47.609375 58.5 49.21875 52.21875 
Q 50.828125 45.953125 50.828125 35.296875 
Q 50.828125 22.703125 48.234375 14.96875 
Q 45.65625 7.234375 40.5 3 
Q 35.359375 -1.21875 27.484375 -1.21875 
Q 17.140625 -1.21875 11.234375 6.203125 
Q 4.15625 15.140625 4.15625 35.296875 
z
M 13.1875 35.296875 
Q 13.1875 17.671875 17.3125 11.828125 
Q 21.4375 6 27.484375 6 
Q 33.546875 6 37.671875 11.859375 
Q 41.796875 17.71875 41.796875 35.296875 
Q 41.796875 52.984375 37.671875 58.78125 
Q 33.546875 64.59375 27.390625 64.59375 
Q 21.34375 64.59375 17.71875 59.46875 
Q 13.1875 52.9375 13.1875 35.296875 
z
" id="ArialMT-48"/>
       </defs>
       <use xlink:href="#ArialMT-48"/>
      </g>
     </g>
    </g>
    <g id="xtick_2">
     <g id="line2d_2">
      <g>
       <use style="fill:#262626;stroke:#262626;" x="341.320397" xlink:href="#m481c3e38c9" y="918.2895"/>
      </g>
     </g>
     <g id="text_2">
      <!-- 2 -->
      <g style="fill:#262626;" transform="translate(324.192709 970.681625)scale(0.616 -0.616)">
       <defs>
        <path d="M 50.34375 8.453125 
L 50.34375 0 
L 3.03125 0 
Q 2.9375 3.171875 4.046875 6.109375 
Q 5.859375 10.9375 9.828125 15.625 
Q 13.8125 20.3125 21.34375 26.46875 
Q 33.015625 36.03125 37.109375 41.625 
Q 41.21875 47.21875 41.21875 52.203125 
Q 41.21875 57.421875 37.46875 61 
Q 33.734375 64.59375 27.734375 64.59375 
Q 21.390625 64.59375 17.578125 60.78125 
Q 13.765625 56.984375 13.71875 50.25 
L 4.6875 51.171875 
Q 5.609375 61.28125 11.65625 66.578125 
Q 17.71875 71.875 27.9375 71.875 
Q 38.234375 71.875 44.234375 66.15625 
Q 50.25 60.453125 50.25 52 
Q 50.25 47.703125 48.484375 43.546875 
Q 46.734375 39.40625 42.65625 34.8125 
Q 38.578125 30.21875 29.109375 22.21875 
Q 21.1875 15.578125 18.9375 13.203125 
Q 16.703125 10.84375 15.234375 8.453125 
z
" id="ArialMT-50"/>
       </defs>
       <use xlink:href="#ArialMT-50"/>
      </g>
     </g>
    </g>
    <g id="xtick_3">
     <g id="line2d_3">
      <g>
       <use style="fill:#262626;stroke:#262626;" x="471.390327" xlink:href="#m481c3e38c9" y="918.2895"/>
      </g>
     </g>
     <g id="text_3">
      <!-- 4 -->
      <g style="fill:#262626;" transform="translate(454.262639 970.681625)scale(0.616 -0.616)">
       <defs>
        <path d="M 32.328125 0 
L 32.328125 17.140625 
L 1.265625 17.140625 
L 1.265625 25.203125 
L 33.9375 71.578125 
L 41.109375 71.578125 
L 41.109375 25.203125 
L 50.78125 25.203125 
L 50.78125 17.140625 
L 41.109375 17.140625 
L 41.109375 0 
z
M 32.328125 25.203125 
L 32.328125 57.46875 
L 9.90625 25.203125 
z
" id="ArialMT-52"/>
       </defs>
       <use xlink:href="#ArialMT-52"/>
      </g>
     </g>
    </g>
    <g id="xtick_4">
     <g id="line2d_4">
      <g>
       <use style="fill:#262626;stroke:#262626;" x="601.460257" xlink:href="#m481c3e38c9" y="918.2895"/>
      </g>
     </g>
     <g id="text_4">
      <!-- 6 -->
      <g style="fill:#262626;" transform="translate(584.332569 970.681625)scale(0.616 -0.616)">
       <defs>
        <path d="M 49.75 54.046875 
L 41.015625 53.375 
Q 39.84375 58.546875 37.703125 60.890625 
Q 34.125 64.65625 28.90625 64.65625 
Q 24.703125 64.65625 21.53125 62.3125 
Q 17.390625 59.28125 14.984375 53.46875 
Q 12.59375 47.65625 12.5 36.921875 
Q 15.671875 41.75 20.265625 44.09375 
Q 24.859375 46.4375 29.890625 46.4375 
Q 38.671875 46.4375 44.84375 39.96875 
Q 51.03125 33.5 51.03125 23.25 
Q 51.03125 16.5 48.125 10.71875 
Q 45.21875 4.9375 40.140625 1.859375 
Q 35.0625 -1.21875 28.609375 -1.21875 
Q 17.625 -1.21875 10.6875 6.859375 
Q 3.765625 14.9375 3.765625 33.5 
Q 3.765625 54.25 11.421875 63.671875 
Q 18.109375 71.875 29.4375 71.875 
Q 37.890625 71.875 43.28125 67.140625 
Q 48.6875 62.40625 49.75 54.046875 
z
M 13.875 23.1875 
Q 13.875 18.65625 15.796875 14.5 
Q 17.71875 10.359375 21.1875 8.171875 
Q 24.65625 6 28.46875 6 
Q 34.03125 6 38.03125 10.484375 
Q 42.046875 14.984375 42.046875 22.703125 
Q 42.046875 30.125 38.078125 34.390625 
Q 34.125 38.671875 28.125 38.671875 
Q 22.171875 38.671875 18.015625 34.390625 
Q 13.875 30.125 13.875 23.1875 
z
" id="ArialMT-54"/>
       </defs>
       <use xlink:href="#ArialMT-54"/>
      </g>
     </g>
    </g>
    <g id="xtick_5">
     <g id="line2d_5">
      <g>
       <use style="fill:#262626;stroke:#262626;" x="731.530187" xlink:href="#m481c3e38c9" y="918.2895"/>
      </g>
     </g>
     <g id="text_5">
      <!-- 8 -->
      <g style="fill:#262626;" transform="translate(714.4025 970.681625)scale(0.616 -0.616)">
       <defs>
        <path d="M 17.671875 38.8125 
Q 12.203125 40.828125 9.5625 44.53125 
Q 6.9375 48.25 6.9375 53.421875 
Q 6.9375 61.234375 12.546875 66.546875 
Q 18.171875 71.875 27.484375 71.875 
Q 36.859375 71.875 42.578125 66.421875 
Q 48.296875 60.984375 48.296875 53.171875 
Q 48.296875 48.1875 45.671875 44.5 
Q 43.0625 40.828125 37.75 38.8125 
Q 44.34375 36.671875 47.78125 31.875 
Q 51.21875 27.09375 51.21875 20.453125 
Q 51.21875 11.28125 44.71875 5.03125 
Q 38.234375 -1.21875 27.640625 -1.21875 
Q 17.046875 -1.21875 10.546875 5.046875 
Q 4.046875 11.328125 4.046875 20.703125 
Q 4.046875 27.6875 7.59375 32.390625 
Q 11.140625 37.109375 17.671875 38.8125 
z
M 15.921875 53.71875 
Q 15.921875 48.640625 19.1875 45.40625 
Q 22.46875 42.1875 27.6875 42.1875 
Q 32.765625 42.1875 36.015625 45.375 
Q 39.265625 48.578125 39.265625 53.21875 
Q 39.265625 58.0625 35.90625 61.359375 
Q 32.5625 64.65625 27.59375 64.65625 
Q 22.5625 64.65625 19.234375 61.421875 
Q 15.921875 58.203125 15.921875 53.71875 
z
M 13.09375 20.65625 
Q 13.09375 16.890625 14.875 13.375 
Q 16.65625 9.859375 20.171875 7.921875 
Q 23.6875 6 27.734375 6 
Q 34.03125 6 38.125 10.046875 
Q 42.234375 14.109375 42.234375 20.359375 
Q 42.234375 26.703125 38.015625 30.859375 
Q 33.796875 35.015625 27.4375 35.015625 
Q 21.234375 35.015625 17.15625 30.90625 
Q 13.09375 26.8125 13.09375 20.65625 
z
" id="ArialMT-56"/>
       </defs>
       <use xlink:href="#ArialMT-56"/>
      </g>
     </g>
    </g>
    <g id="xtick_6">
     <g id="line2d_6">
      <g>
       <use style="fill:#262626;stroke:#262626;" x="861.600117" xlink:href="#m481c3e38c9" y="918.2895"/>
      </g>
     </g>
     <g id="text_6">
      <!-- 10 -->
      <g style="fill:#262626;" transform="translate(827.344742 970.681625)scale(0.616 -0.616)">
       <defs>
        <path d="M 37.25 0 
L 28.46875 0 
L 28.46875 56 
Q 25.296875 52.984375 20.140625 49.953125 
Q 14.984375 46.921875 10.890625 45.40625 
L 10.890625 53.90625 
Q 18.265625 57.375 23.78125 62.296875 
Q 29.296875 67.234375 31.59375 71.875 
L 37.25 71.875 
z
" id="ArialMT-49"/>
       </defs>
       <use xlink:href="#ArialMT-49"/>
       <use x="55.615234" xlink:href="#ArialMT-48"/>
      </g>
     </g>
    </g>
    <g id="xtick_7">
     <g id="line2d_7">
      <g>
       <use style="fill:#262626;stroke:#262626;" x="991.670047" xlink:href="#m481c3e38c9" y="918.2895"/>
      </g>
     </g>
     <g id="text_7">
      <!-- 12 -->
      <g style="fill:#262626;" transform="translate(957.414672 970.681625)scale(0.616 -0.616)">
       <use xlink:href="#ArialMT-49"/>
       <use x="55.615234" xlink:href="#ArialMT-50"/>
      </g>
     </g>
    </g>
    <g id="xtick_8">
     <g id="line2d_8">
      <g>
       <use style="fill:#262626;stroke:#262626;" x="1121.739977" xlink:href="#m481c3e38c9" y="918.2895"/>
      </g>
     </g>
     <g id="text_8">
      <!-- 14 -->
      <g style="fill:#262626;" transform="translate(1087.484602 970.681625)scale(0.616 -0.616)">
       <use xlink:href="#ArialMT-49"/>
       <use x="55.615234" xlink:href="#ArialMT-52"/>
      </g>
     </g>
    </g>
    <g id="xtick_9">
     <g id="line2d_9">
      <g>
       <use style="fill:#262626;stroke:#262626;" x="1251.809907" xlink:href="#m481c3e38c9" y="918.2895"/>
      </g>
     </g>
     <g id="text_9">
      <!-- 16 -->
      <g style="fill:#262626;" transform="translate(1217.554532 970.681625)scale(0.616 -0.616)">
       <use xlink:href="#ArialMT-49"/>
       <use x="55.615234" xlink:href="#ArialMT-54"/>
      </g>
     </g>
    </g>
    <g id="xtick_10">
     <g id="line2d_10">
      <g>
       <use style="fill:#262626;stroke:#262626;" x="1381.879837" xlink:href="#m481c3e38c9" y="918.2895"/>
      </g>
     </g>
     <g id="text_10">
      <!-- 18 -->
      <g style="fill:#262626;" transform="translate(1347.624462 970.681625)scale(0.616 -0.616)">
       <use xlink:href="#ArialMT-49"/>
       <use x="55.615234" xlink:href="#ArialMT-56"/>
      </g>
     </g>
    </g>
    <g id="xtick_11">
     <g id="line2d_11">
      <g>
       <use style="fill:#262626;stroke:#262626;" x="1511.949767" xlink:href="#m481c3e38c9" y="918.2895"/>
      </g>
     </g>
     <g id="text_11">
      <!-- 20 -->
      <g style="fill:#262626;" transform="translate(1477.694392 970.681625)scale(0.616 -0.616)">
       <use xlink:href="#ArialMT-50"/>
       <use x="55.615234" xlink:href="#ArialMT-48"/>
      </g>
     </g>
    </g>
    <g id="xtick_12">
     <g id="line2d_12">
      <g>
       <use style="fill:#262626;stroke:#262626;" x="1642.019698" xlink:href="#m481c3e38c9" y="918.2895"/>
      </g>
     </g>
     <g id="text_12">
      <!-- 22 -->
      <g style="fill:#262626;" transform="translate(1607.764323 970.681625)scale(0.616 -0.616)">
       <use xlink:href="#ArialMT-50"/>
       <use x="55.615234" xlink:href="#ArialMT-50"/>
      </g>
     </g>
    </g>
    <g id="xtick_13">
     <g id="line2d_13">
      <g>
       <use style="fill:#262626;stroke:#262626;" x="1772.089628" xlink:href="#m481c3e38c9" y="918.2895"/>
      </g>
     </g>
     <g id="text_13">
      <!-- 24 -->
      <g style="fill:#262626;" transform="translate(1737.834253 970.681625)scale(0.616 -0.616)">
       <use xlink:href="#ArialMT-50"/>
       <use x="55.615234" xlink:href="#ArialMT-52"/>
      </g>
     </g>
    </g>
    <g id="xtick_14">
     <g id="line2d_14">
      <g>
       <use style="fill:#262626;stroke:#262626;" x="1902.159558" xlink:href="#m481c3e38c9" y="918.2895"/>
      </g>
     </g>
     <g id="text_14">
      <!-- 26 -->
      <g style="fill:#262626;" transform="translate(1867.904183 970.681625)scale(0.616 -0.616)">
       <use xlink:href="#ArialMT-50"/>
       <use x="55.615234" xlink:href="#ArialMT-54"/>
      </g>
     </g>
    </g>
    <g id="xtick_15">
     <g id="line2d_15">
      <g>
       <use style="fill:#262626;stroke:#262626;" x="2032.229488" xlink:href="#m481c3e38c9" y="918.2895"/>
      </g>
     </g>
     <g id="text_15">
      <!-- 28 -->
      <g style="fill:#262626;" transform="translate(1997.974113 970.681625)scale(0.616 -0.616)">
       <use xlink:href="#ArialMT-50"/>
       <use x="55.615234" xlink:href="#ArialMT-56"/>
      </g>
     </g>
    </g>
    <g id="xtick_16">
     <g id="line2d_16">
      <g>
       <use style="fill:#262626;stroke:#262626;" x="2162.299418" xlink:href="#m481c3e38c9" y="918.2895"/>
      </g>
     </g>
     <g id="text_16">
      <!-- 30 -->
      <g style="fill:#262626;" transform="translate(2128.044043 970.681625)scale(0.616 -0.616)">
       <defs>
        <path d="M 4.203125 18.890625 
L 12.984375 20.0625 
Q 14.5 12.59375 18.140625 9.296875 
Q 21.78125 6 27 6 
Q 33.203125 6 37.46875 10.296875 
Q 41.75 14.59375 41.75 20.953125 
Q 41.75 27 37.796875 30.921875 
Q 33.84375 34.859375 27.734375 34.859375 
Q 25.25 34.859375 21.53125 33.890625 
L 22.515625 41.609375 
Q 23.390625 41.5 23.921875 41.5 
Q 29.546875 41.5 34.03125 44.421875 
Q 38.53125 47.359375 38.53125 53.46875 
Q 38.53125 58.296875 35.25 61.46875 
Q 31.984375 64.65625 26.8125 64.65625 
Q 21.6875 64.65625 18.265625 61.421875 
Q 14.84375 58.203125 13.875 51.765625 
L 5.078125 53.328125 
Q 6.6875 62.15625 12.390625 67.015625 
Q 18.109375 71.875 26.609375 71.875 
Q 32.46875 71.875 37.390625 69.359375 
Q 42.328125 66.84375 44.9375 62.5 
Q 47.5625 58.15625 47.5625 53.265625 
Q 47.5625 48.640625 45.0625 44.828125 
Q 42.578125 41.015625 37.703125 38.765625 
Q 44.046875 37.3125 47.5625 32.6875 
Q 51.078125 28.078125 51.078125 21.140625 
Q 51.078125 11.765625 44.234375 5.25 
Q 37.40625 -1.265625 26.953125 -1.265625 
Q 17.53125 -1.265625 11.296875 4.34375 
Q 5.078125 9.96875 4.203125 18.890625 
z
" id="ArialMT-51"/>
       </defs>
       <use xlink:href="#ArialMT-51"/>
       <use x="55.615234" xlink:href="#ArialMT-48"/>
      </g>
     </g>
    </g>
    <g id="xtick_17">
     <g id="line2d_17">
      <g>
       <use style="fill:#262626;stroke:#262626;" x="2292.369348" xlink:href="#m481c3e38c9" y="918.2895"/>
      </g>
     </g>
     <g id="text_17">
      <!-- 32 -->
      <g style="fill:#262626;" transform="translate(2258.113973 970.681625)scale(0.616 -0.616)">
       <use xlink:href="#ArialMT-51"/>
       <use x="55.615234" xlink:href="#ArialMT-50"/>
      </g>
     </g>
    </g>
    <g id="xtick_18">
     <g id="line2d_18">
      <g>
       <use style="fill:#262626;stroke:#262626;" x="2422.439278" xlink:href="#m481c3e38c9" y="918.2895"/>
      </g>
     </g>
     <g id="text_18">
      <!-- 34 -->
      <g style="fill:#262626;" transform="translate(2388.183903 970.681625)scale(0.616 -0.616)">
       <use xlink:href="#ArialMT-51"/>
       <use x="55.615234" xlink:href="#ArialMT-52"/>
      </g>
     </g>
    </g>
    <g id="xtick_19">
     <g id="line2d_19">
      <g>
       <use style="fill:#262626;stroke:#262626;" x="2552.509208" xlink:href="#m481c3e38c9" y="918.2895"/>
      </g>
     </g>
     <g id="text_19">
      <!-- 36 -->
      <g style="fill:#262626;" transform="translate(2518.253833 970.681625)scale(0.616 -0.616)">
       <use xlink:href="#ArialMT-51"/>
       <use x="55.615234" xlink:href="#ArialMT-54"/>
      </g>
     </g>
    </g>
    <g id="xtick_20">
     <g id="line2d_20">
      <g>
       <use style="fill:#262626;stroke:#262626;" x="2682.579138" xlink:href="#m481c3e38c9" y="918.2895"/>
      </g>
     </g>
     <g id="text_20">
      <!-- 38 -->
      <g style="fill:#262626;" transform="translate(2648.323763 970.681625)scale(0.616 -0.616)">
       <use xlink:href="#ArialMT-51"/>
       <use x="55.615234" xlink:href="#ArialMT-56"/>
      </g>
     </g>
    </g>
    <g id="xtick_21">
     <g id="line2d_21">
      <g>
       <use style="fill:#262626;stroke:#262626;" x="2812.649068" xlink:href="#m481c3e38c9" y="918.2895"/>
      </g>
     </g>
     <g id="text_21">
      <!-- 40 -->
      <g style="fill:#262626;" transform="translate(2778.393693 970.681625)scale(0.616 -0.616)">
       <use xlink:href="#ArialMT-52"/>
       <use x="55.615234" xlink:href="#ArialMT-48"/>
      </g>
     </g>
    </g>
    <g id="text_22">
     <!-- Year of Project -->
     <g style="fill:#262626;" transform="translate(1325.306 1035.844125)scale(0.672 -0.672)">
      <defs>
       <path d="M 27.875 0 
L 27.875 30.328125 
L 0.296875 71.578125 
L 11.8125 71.578125 
L 25.921875 50 
Q 29.828125 43.953125 33.203125 37.890625 
Q 36.421875 43.5 41.015625 50.53125 
L 54.890625 71.578125 
L 65.921875 71.578125 
L 37.359375 30.328125 
L 37.359375 0 
z
" id="ArialMT-89"/>
       <path d="M 42.09375 16.703125 
L 51.171875 15.578125 
Q 49.03125 7.625 43.21875 3.21875 
Q 37.40625 -1.171875 28.375 -1.171875 
Q 17 -1.171875 10.328125 5.828125 
Q 3.65625 12.84375 3.65625 25.484375 
Q 3.65625 38.578125 10.390625 45.796875 
Q 17.140625 53.03125 27.875 53.03125 
Q 38.28125 53.03125 44.875 45.953125 
Q 51.46875 38.875 51.46875 26.03125 
Q 51.46875 25.25 51.421875 23.6875 
L 12.75 23.6875 
Q 13.234375 15.140625 17.578125 10.59375 
Q 21.921875 6.0625 28.421875 6.0625 
Q 33.25 6.0625 36.671875 8.59375 
Q 40.09375 11.140625 42.09375 16.703125 
z
M 13.234375 30.90625 
L 42.1875 30.90625 
Q 41.609375 37.453125 38.875 40.71875 
Q 34.671875 45.796875 27.984375 45.796875 
Q 21.921875 45.796875 17.796875 41.75 
Q 13.671875 37.703125 13.234375 30.90625 
z
" id="ArialMT-101"/>
       <path d="M 40.4375 6.390625 
Q 35.546875 2.25 31.03125 0.53125 
Q 26.515625 -1.171875 21.34375 -1.171875 
Q 12.796875 -1.171875 8.203125 3 
Q 3.609375 7.171875 3.609375 13.671875 
Q 3.609375 17.484375 5.34375 20.625 
Q 7.078125 23.78125 9.890625 25.6875 
Q 12.703125 27.59375 16.21875 28.5625 
Q 18.796875 29.25 24.03125 29.890625 
Q 34.671875 31.15625 39.703125 32.90625 
Q 39.75 34.71875 39.75 35.203125 
Q 39.75 40.578125 37.25 42.78125 
Q 33.890625 45.75 27.25 45.75 
Q 21.046875 45.75 18.09375 43.578125 
Q 15.140625 41.40625 13.71875 35.890625 
L 5.125 37.0625 
Q 6.296875 42.578125 8.984375 45.96875 
Q 11.671875 49.359375 16.75 51.1875 
Q 21.828125 53.03125 28.515625 53.03125 
Q 35.15625 53.03125 39.296875 51.46875 
Q 43.453125 49.90625 45.40625 47.53125 
Q 47.359375 45.171875 48.140625 41.546875 
Q 48.578125 39.3125 48.578125 33.453125 
L 48.578125 21.734375 
Q 48.578125 9.46875 49.140625 6.21875 
Q 49.703125 2.984375 51.375 0 
L 42.1875 0 
Q 40.828125 2.734375 40.4375 6.390625 
z
M 39.703125 26.03125 
Q 34.90625 24.078125 25.34375 22.703125 
Q 19.921875 21.921875 17.671875 20.9375 
Q 15.4375 19.96875 14.203125 18.09375 
Q 12.984375 16.21875 12.984375 13.921875 
Q 12.984375 10.40625 15.640625 8.0625 
Q 18.3125 5.71875 23.4375 5.71875 
Q 28.515625 5.71875 32.46875 7.9375 
Q 36.421875 10.15625 38.28125 14.015625 
Q 39.703125 17 39.703125 22.796875 
z
" id="ArialMT-97"/>
       <path d="M 6.5 0 
L 6.5 51.859375 
L 14.40625 51.859375 
L 14.40625 44 
Q 17.4375 49.515625 20 51.265625 
Q 22.5625 53.03125 25.640625 53.03125 
Q 30.078125 53.03125 34.671875 50.203125 
L 31.640625 42.046875 
Q 28.421875 43.953125 25.203125 43.953125 
Q 22.3125 43.953125 20.015625 42.21875 
Q 17.71875 40.484375 16.75 37.40625 
Q 15.28125 32.71875 15.28125 27.15625 
L 15.28125 0 
z
" id="ArialMT-114"/>
       <path id="ArialMT-32"/>
       <path d="M 3.328125 25.921875 
Q 3.328125 40.328125 11.328125 47.265625 
Q 18.015625 53.03125 27.640625 53.03125 
Q 38.328125 53.03125 45.109375 46.015625 
Q 51.90625 39.015625 51.90625 26.65625 
Q 51.90625 16.65625 48.90625 10.90625 
Q 45.90625 5.171875 40.15625 2 
Q 34.421875 -1.171875 27.640625 -1.171875 
Q 16.75 -1.171875 10.03125 5.8125 
Q 3.328125 12.796875 3.328125 25.921875 
z
M 12.359375 25.921875 
Q 12.359375 15.96875 16.703125 11.015625 
Q 21.046875 6.0625 27.640625 6.0625 
Q 34.1875 6.0625 38.53125 11.03125 
Q 42.875 16.015625 42.875 26.21875 
Q 42.875 35.84375 38.5 40.796875 
Q 34.125 45.75 27.640625 45.75 
Q 21.046875 45.75 16.703125 40.8125 
Q 12.359375 35.890625 12.359375 25.921875 
z
" id="ArialMT-111"/>
       <path d="M 8.6875 0 
L 8.6875 45.015625 
L 0.921875 45.015625 
L 0.921875 51.859375 
L 8.6875 51.859375 
L 8.6875 57.375 
Q 8.6875 62.59375 9.625 65.140625 
Q 10.890625 68.5625 14.078125 70.671875 
Q 17.28125 72.796875 23.046875 72.796875 
Q 26.765625 72.796875 31.25 71.921875 
L 29.9375 64.265625 
Q 27.203125 64.75 24.75 64.75 
Q 20.75 64.75 19.09375 63.03125 
Q 17.4375 61.328125 17.4375 56.640625 
L 17.4375 51.859375 
L 27.546875 51.859375 
L 27.546875 45.015625 
L 17.4375 45.015625 
L 17.4375 0 
z
" id="ArialMT-102"/>
       <path d="M 7.71875 0 
L 7.71875 71.578125 
L 34.71875 71.578125 
Q 41.84375 71.578125 45.609375 70.90625 
Q 50.875 70.015625 54.4375 67.546875 
Q 58.015625 65.09375 60.1875 60.640625 
Q 62.359375 56.203125 62.359375 50.875 
Q 62.359375 41.75 56.546875 35.421875 
Q 50.734375 29.109375 35.546875 29.109375 
L 17.1875 29.109375 
L 17.1875 0 
z
M 17.1875 37.546875 
L 35.6875 37.546875 
Q 44.875 37.546875 48.734375 40.96875 
Q 52.59375 44.390625 52.59375 50.59375 
Q 52.59375 55.078125 50.3125 58.265625 
Q 48.046875 61.46875 44.34375 62.5 
Q 41.9375 63.140625 35.5 63.140625 
L 17.1875 63.140625 
z
" id="ArialMT-80"/>
       <path d="M 6.546875 61.375 
L 6.546875 71.578125 
L 15.328125 71.578125 
L 15.328125 61.375 
z
M -4.59375 -20.125 
L -2.9375 -12.640625 
Q -0.296875 -13.328125 1.21875 -13.328125 
Q 3.90625 -13.328125 5.21875 -11.546875 
Q 6.546875 -9.765625 6.546875 -2.640625 
L 6.546875 51.859375 
L 15.328125 51.859375 
L 15.328125 -2.828125 
Q 15.328125 -12.40625 12.84375 -16.15625 
Q 9.671875 -21.046875 2.296875 -21.046875 
Q -1.265625 -21.046875 -4.59375 -20.125 
z
" id="ArialMT-106"/>
       <path d="M 40.4375 19 
L 49.078125 17.875 
Q 47.65625 8.9375 41.8125 3.875 
Q 35.984375 -1.171875 27.484375 -1.171875 
Q 16.84375 -1.171875 10.375 5.78125 
Q 3.90625 12.75 3.90625 25.734375 
Q 3.90625 34.125 6.6875 40.421875 
Q 9.46875 46.734375 15.15625 49.875 
Q 20.84375 53.03125 27.546875 53.03125 
Q 35.984375 53.03125 41.359375 48.75 
Q 46.734375 44.484375 48.25 36.625 
L 39.703125 35.296875 
Q 38.484375 40.53125 35.375 43.15625 
Q 32.28125 45.796875 27.875 45.796875 
Q 21.234375 45.796875 17.078125 41.03125 
Q 12.9375 36.28125 12.9375 25.984375 
Q 12.9375 15.53125 16.9375 10.796875 
Q 20.953125 6.0625 27.390625 6.0625 
Q 32.5625 6.0625 36.03125 9.234375 
Q 39.5 12.40625 40.4375 19 
z
" id="ArialMT-99"/>
       <path d="M 25.78125 7.859375 
L 27.046875 0.09375 
Q 23.34375 -0.6875 20.40625 -0.6875 
Q 15.625 -0.6875 12.984375 0.828125 
Q 10.359375 2.34375 9.28125 4.8125 
Q 8.203125 7.28125 8.203125 15.1875 
L 8.203125 45.015625 
L 1.765625 45.015625 
L 1.765625 51.859375 
L 8.203125 51.859375 
L 8.203125 64.703125 
L 16.9375 69.96875 
L 16.9375 51.859375 
L 25.78125 51.859375 
L 25.78125 45.015625 
L 16.9375 45.015625 
L 16.9375 14.703125 
Q 16.9375 10.9375 17.40625 9.859375 
Q 17.875 8.796875 18.921875 8.15625 
Q 19.96875 7.515625 21.921875 7.515625 
Q 23.390625 7.515625 25.78125 7.859375 
z
" id="ArialMT-116"/>
      </defs>
      <use xlink:href="#ArialMT-89"/>
      <use x="57.574219" xlink:href="#ArialMT-101"/>
      <use x="113.189453" xlink:href="#ArialMT-97"/>
      <use x="168.804688" xlink:href="#ArialMT-114"/>
      <use x="202.105469" xlink:href="#ArialMT-32"/>
      <use x="229.888672" xlink:href="#ArialMT-111"/>
      <use x="285.503906" xlink:href="#ArialMT-102"/>
      <use x="313.287109" xlink:href="#ArialMT-32"/>
      <use x="341.070312" xlink:href="#ArialMT-80"/>
      <use x="407.769531" xlink:href="#ArialMT-114"/>
      <use x="441.070312" xlink:href="#ArialMT-111"/>
      <use x="496.685547" xlink:href="#ArialMT-106"/>
      <use x="518.902344" xlink:href="#ArialMT-101"/>
      <use x="574.517578" xlink:href="#ArialMT-99"/>
      <use x="624.517578" xlink:href="#ArialMT-116"/>
     </g>
    </g>
   </g>
   <g id="matplotlib.axis_2">
    <g id="ytick_1">
     <g id="line2d_22">
      <defs>
       <path d="M 0 0 
L -4.8 0 
" id="md0c8bc6c04" style="stroke:#262626;"/>
      </defs>
      <g>
       <use style="fill:#262626;stroke:#262626;" x="149.46725" xlink:href="#md0c8bc6c04" y="792.273136"/>
      </g>
     </g>
     <g id="text_23">
      <!-- 6 -->
      <g style="fill:#262626;" transform="translate(106.911875 814.319199)scale(0.616 -0.616)">
       <use xlink:href="#ArialMT-54"/>
      </g>
     </g>
    </g>
    <g id="ytick_2">
     <g id="line2d_23">
      <g>
       <use style="fill:#262626;stroke:#262626;" x="149.46725" xlink:href="#md0c8bc6c04" y="644.018591"/>
      </g>
     </g>
     <g id="text_24">
      <!-- 7 -->
      <g style="fill:#262626;" transform="translate(106.911875 666.064653)scale(0.616 -0.616)">
       <defs>
        <path d="M 4.734375 62.203125 
L 4.734375 70.65625 
L 51.078125 70.65625 
L 51.078125 63.8125 
Q 44.234375 56.546875 37.515625 44.484375 
Q 30.8125 32.421875 27.15625 19.671875 
Q 24.515625 10.6875 23.78125 0 
L 14.75 0 
Q 14.890625 8.453125 18.0625 20.40625 
Q 21.234375 32.375 27.171875 43.484375 
Q 33.109375 54.59375 39.796875 62.203125 
z
" id="ArialMT-55"/>
       </defs>
       <use xlink:href="#ArialMT-55"/>
      </g>
     </g>
    </g>
    <g id="ytick_3">
     <g id="line2d_24">
      <g>
       <use style="fill:#262626;stroke:#262626;" x="149.46725" xlink:href="#md0c8bc6c04" y="495.764045"/>
      </g>
     </g>
     <g id="text_25">
      <!-- 8 -->
      <g style="fill:#262626;" transform="translate(106.911875 517.810108)scale(0.616 -0.616)">
       <use xlink:href="#ArialMT-56"/>
      </g>
     </g>
    </g>
    <g id="ytick_4">
     <g id="line2d_25">
      <g>
       <use style="fill:#262626;stroke:#262626;" x="149.46725" xlink:href="#md0c8bc6c04" y="347.5095"/>
      </g>
     </g>
     <g id="text_26">
      <!-- 9 -->
      <g style="fill:#262626;" transform="translate(106.911875 369.555563)scale(0.616 -0.616)">
       <defs>
        <path d="M 5.46875 16.546875 
L 13.921875 17.328125 
Q 14.984375 11.375 18.015625 8.6875 
Q 21.046875 6 25.78125 6 
Q 29.828125 6 32.875 7.859375 
Q 35.9375 9.71875 37.890625 12.8125 
Q 39.84375 15.921875 41.15625 21.1875 
Q 42.484375 26.46875 42.484375 31.9375 
Q 42.484375 32.515625 42.4375 33.6875 
Q 39.796875 29.5 35.234375 26.875 
Q 30.671875 24.265625 25.34375 24.265625 
Q 16.453125 24.265625 10.296875 30.703125 
Q 4.15625 37.15625 4.15625 47.703125 
Q 4.15625 58.59375 10.578125 65.234375 
Q 17 71.875 26.65625 71.875 
Q 33.640625 71.875 39.421875 68.109375 
Q 45.21875 64.359375 48.21875 57.390625 
Q 51.21875 50.4375 51.21875 37.25 
Q 51.21875 23.53125 48.234375 15.40625 
Q 45.265625 7.28125 39.375 3.03125 
Q 33.5 -1.21875 25.59375 -1.21875 
Q 17.1875 -1.21875 11.859375 3.4375 
Q 6.546875 8.109375 5.46875 16.546875 
z
M 41.453125 48.140625 
Q 41.453125 55.71875 37.421875 60.15625 
Q 33.40625 64.59375 27.734375 64.59375 
Q 21.875 64.59375 17.53125 59.8125 
Q 13.1875 55.03125 13.1875 47.40625 
Q 13.1875 40.578125 17.3125 36.296875 
Q 21.4375 32.03125 27.484375 32.03125 
Q 33.59375 32.03125 37.515625 36.296875 
Q 41.453125 40.578125 41.453125 48.140625 
z
" id="ArialMT-57"/>
       </defs>
       <use xlink:href="#ArialMT-57"/>
      </g>
     </g>
    </g>
    <g id="ytick_5">
     <g id="line2d_26">
      <g>
       <use style="fill:#262626;stroke:#262626;" x="149.46725" xlink:href="#md0c8bc6c04" y="199.254955"/>
      </g>
     </g>
     <g id="text_27">
      <!-- 10 -->
      <g style="fill:#262626;" transform="translate(72.6565 221.301017)scale(0.616 -0.616)">
       <use xlink:href="#ArialMT-49"/>
       <use x="55.615234" xlink:href="#ArialMT-48"/>
      </g>
     </g>
    </g>
    <g id="text_28">
     <!-- GWh -->
     <g style="fill:#262626;" transform="translate(55.3005 587.124)rotate(-90)scale(0.672 -0.672)">
      <defs>
       <path d="M 41.21875 28.078125 
L 41.21875 36.46875 
L 71.53125 36.53125 
L 71.53125 9.96875 
Q 64.546875 4.390625 57.125 1.578125 
Q 49.703125 -1.21875 41.890625 -1.21875 
Q 31.34375 -1.21875 22.71875 3.296875 
Q 14.109375 7.8125 9.71875 16.359375 
Q 5.328125 24.90625 5.328125 35.453125 
Q 5.328125 45.90625 9.6875 54.953125 
Q 14.0625 64.015625 22.265625 68.40625 
Q 30.46875 72.796875 41.15625 72.796875 
Q 48.921875 72.796875 55.1875 70.28125 
Q 61.46875 67.78125 65.03125 63.28125 
Q 68.609375 58.796875 70.453125 51.5625 
L 61.921875 49.21875 
Q 60.296875 54.6875 57.90625 57.8125 
Q 55.515625 60.9375 51.0625 62.8125 
Q 46.625 64.703125 41.21875 64.703125 
Q 34.71875 64.703125 29.984375 62.71875 
Q 25.25 60.75 22.34375 57.515625 
Q 19.4375 54.296875 17.828125 50.4375 
Q 15.09375 43.796875 15.09375 36.03125 
Q 15.09375 26.46875 18.390625 20.015625 
Q 21.6875 13.578125 27.984375 10.453125 
Q 34.28125 7.328125 41.359375 7.328125 
Q 47.515625 7.328125 53.375 9.6875 
Q 59.234375 12.0625 62.25 14.75 
L 62.25 28.078125 
z
" id="ArialMT-71"/>
       <path d="M 20.21875 0 
L 1.21875 71.578125 
L 10.9375 71.578125 
L 21.828125 24.65625 
Q 23.578125 17.28125 24.859375 10.015625 
Q 27.59375 21.484375 28.078125 23.25 
L 41.703125 71.578125 
L 53.125 71.578125 
L 63.375 35.359375 
Q 67.234375 21.875 68.953125 10.015625 
Q 70.3125 16.796875 72.515625 25.59375 
L 83.734375 71.578125 
L 93.265625 71.578125 
L 73.640625 0 
L 64.5 0 
L 49.421875 54.546875 
Q 47.515625 61.375 47.171875 62.9375 
Q 46.046875 58.015625 45.0625 54.546875 
L 29.890625 0 
z
" id="ArialMT-87"/>
       <path d="M 6.59375 0 
L 6.59375 71.578125 
L 15.375 71.578125 
L 15.375 45.90625 
Q 21.53125 53.03125 30.90625 53.03125 
Q 36.671875 53.03125 40.921875 50.75 
Q 45.171875 48.484375 47 44.484375 
Q 48.828125 40.484375 48.828125 32.859375 
L 48.828125 0 
L 40.046875 0 
L 40.046875 32.859375 
Q 40.046875 39.453125 37.1875 42.453125 
Q 34.328125 45.453125 29.109375 45.453125 
Q 25.203125 45.453125 21.75 43.421875 
Q 18.3125 41.40625 16.84375 37.9375 
Q 15.375 34.46875 15.375 28.375 
L 15.375 0 
z
" id="ArialMT-104"/>
      </defs>
      <use xlink:href="#ArialMT-71"/>
      <use x="77.783203" xlink:href="#ArialMT-87"/>
      <use x="172.167969" xlink:href="#ArialMT-104"/>
     </g>
    </g>
   </g>
   <g id="line2d_27">
    <path clip-path="url(#pa482292bd0)" d="M 276.285432 688.494955 
L 341.320397 688.494955 
L 406.355362 703.320409 
L 471.390327 703.320409 
L 536.425292 703.320409 
L 601.460257 718.145864 
L 666.495222 718.145864 
L 731.530187 718.145864 
L 796.565152 732.971318 
L 861.600117 732.971318 
L 926.635082 732.971318 
L 991.670047 747.796773 
L 1056.705012 747.796773 
L 1121.739977 747.796773 
L 1186.774942 762.622227 
L 1251.809907 762.622227 
L 1316.844872 762.622227 
L 1381.879837 777.447682 
L 1446.914802 777.447682 
L 1511.949767 777.447682 
L 1576.984733 792.273136 
L 1642.019698 792.273136 
L 1707.054663 792.273136 
L 1772.089628 807.098591 
L 1837.124593 807.098591 
L 1902.159558 807.098591 
L 1967.194523 821.924045 
L 2032.229488 821.924045 
L 2097.264453 821.924045 
L 2162.299418 836.7495 
L 2227.334383 836.7495 
L 2292.369348 836.7495 
L 2357.404313 851.574955 
L 2422.439278 851.574955 
L 2487.474243 851.574955 
L 2552.509208 866.400409 
L 2617.544173 866.400409 
L 2682.579138 866.400409 
L 2747.614103 881.225864 
L 2812.649068 881.225864 
" style="fill:none;stroke:#c44e52;stroke-dasharray:37,16;stroke-dashoffset:0;stroke-width:10;"/>
   </g>
   <g id="line2d_28">
    <path clip-path="url(#pa482292bd0)" d="M 276.285432 451.287682 
L 341.320397 451.287682 
L 406.355362 466.113136 
L 471.390327 466.113136 
L 536.425292 466.113136 
L 601.460257 480.938591 
L 666.495222 480.938591 
L 731.530187 495.764045 
L 796.565152 495.764045 
L 861.600117 495.764045 
L 926.635082 510.5895 
L 991.670047 510.5895 
L 1056.705012 525.414955 
L 1121.739977 525.414955 
L 1186.774942 525.414955 
L 1251.809907 540.240409 
L 1316.844872 540.240409 
L 1381.879837 555.065864 
L 1446.914802 555.065864 
L 1511.949767 569.891318 
L 1576.984733 569.891318 
L 1642.019698 569.891318 
L 1707.054663 584.716773 
L 1772.089628 584.716773 
L 1837.124593 599.542227 
L 1902.159558 599.542227 
L 1967.194523 599.542227 
L 2032.229488 614.367682 
L 2097.264453 614.367682 
L 2162.299418 629.193136 
L 2227.334383 629.193136 
L 2292.369348 644.018591 
L 2357.404313 644.018591 
L 2422.439278 644.018591 
L 2487.474243 658.844045 
L 2552.509208 658.844045 
L 2617.544173 673.6695 
L 2682.579138 673.6695 
L 2747.614103 673.6695 
L 2812.649068 688.494955 
" style="fill:none;stroke:#1a1a1a;stroke-dasharray:37,16;stroke-dashoffset:0;stroke-width:10;"/>
   </g>
   <g id="line2d_29">
    <path clip-path="url(#pa482292bd0)" d="M 276.285432 139.953136 
L 341.320397 139.953136 
L 406.355362 154.778591 
L 471.390327 154.778591 
L 536.425292 169.604045 
L 601.460257 169.604045 
L 666.495222 184.4295 
L 731.530187 184.4295 
L 796.565152 199.254955 
L 861.600117 199.254955 
L 926.635082 214.080409 
L 991.670047 214.080409 
L 1056.705012 228.905864 
L 1121.739977 228.905864 
L 1186.774942 243.731318 
L 1251.809907 243.731318 
L 1316.844872 258.556773 
L 1381.879837 258.556773 
L 1446.914802 273.382227 
L 1511.949767 273.382227 
L 1576.984733 288.207682 
L 1642.019698 288.207682 
L 1707.054663 303.033136 
L 1772.089628 317.858591 
L 1837.124593 317.858591 
L 1902.159558 332.684045 
L 1967.194523 332.684045 
L 2032.229488 347.5095 
L 2097.264453 347.5095 
L 2162.299418 362.334955 
L 2227.334383 362.334955 
L 2292.369348 377.160409 
L 2357.404313 377.160409 
L 2422.439278 391.985864 
L 2487.474243 391.985864 
L 2552.509208 406.811318 
L 2617.544173 406.811318 
L 2682.579138 421.636773 
L 2747.614103 421.636773 
L 2812.649068 436.462227 
" style="fill:none;stroke:#4c72b0;stroke-dasharray:37,16;stroke-dashoffset:0;stroke-width:10;"/>
   </g>
   <g id="line2d_30">
    <path clip-path="url(#pa482292bd0)" d="M 276.285432 880.845146 
L 341.320397 880.845146 
L 406.355362 880.845146 
L 471.390327 880.845146 
L 536.425292 880.845146 
L 601.460257 880.845146 
L 666.495222 880.845146 
L 731.530187 880.845146 
L 796.565152 880.845146 
L 861.600117 880.845146 
L 926.635082 880.845146 
L 991.670047 880.845146 
L 1056.705012 880.845146 
L 1121.739977 880.845146 
L 1186.774942 880.845146 
L 1251.809907 880.845146 
L 1316.844872 880.845146 
L 1381.879837 880.845146 
L 1446.914802 880.845146 
L 1511.949767 880.845146 
L 1576.984733 880.845146 
L 1642.019698 880.845146 
L 1707.054663 880.845146 
L 1772.089628 880.845146 
L 1837.124593 880.845146 
L 1902.159558 880.845146 
L 1967.194523 880.845146 
L 2032.229488 880.845146 
L 2097.264453 880.845146 
L 2162.299418 880.845146 
L 2227.334383 880.845146 
L 2292.369348 880.845146 
L 2357.404313 880.845146 
L 2422.439278 880.845146 
L 2487.474243 880.845146 
L 2552.509208 880.845146 
L 2617.544173 880.845146 
L 2682.579138 880.845146 
L 2747.614103 880.845146 
L 2812.649068 880.845146 
" style="fill:none;stroke:#c44e52;stroke-linecap:round;stroke-width:10;"/>
   </g>
   <g id="line2d_31">
    <path clip-path="url(#pa482292bd0)" d="M 276.285432 687.878216 
L 341.320397 687.878216 
L 406.355362 687.878216 
L 471.390327 687.878216 
L 536.425292 687.878216 
L 601.460257 687.878216 
L 666.495222 687.878216 
L 731.530187 687.878216 
L 796.565152 687.878216 
L 861.600117 687.878216 
L 926.635082 687.878216 
L 991.670047 687.878216 
L 1056.705012 687.878216 
L 1121.739977 687.878216 
L 1186.774942 687.878216 
L 1251.809907 687.878216 
L 1316.844872 687.878216 
L 1381.879837 687.878216 
L 1446.914802 687.878216 
L 1511.949767 687.878216 
L 1576.984733 687.878216 
L 1642.019698 687.878216 
L 1707.054663 687.878216 
L 1772.089628 687.878216 
L 1837.124593 687.878216 
L 1902.159558 687.878216 
L 1967.194523 687.878216 
L 2032.229488 687.878216 
L 2097.264453 687.878216 
L 2162.299418 687.878216 
L 2227.334383 687.878216 
L 2292.369348 687.878216 
L 2357.404313 687.878216 
L 2422.439278 687.878216 
L 2487.474243 687.878216 
L 2552.509208 687.878216 
L 2617.544173 687.878216 
L 2682.579138 687.878216 
L 2747.614103 687.878216 
L 2812.649068 687.878216 
" style="fill:none;stroke:#1a1a1a;stroke-linecap:round;stroke-width:10;"/>
   </g>
   <g id="line2d_32">
    <path clip-path="url(#pa482292bd0)" d="M 276.285432 436.412414 
L 341.320397 436.412414 
L 406.355362 436.412414 
L 471.390327 436.412414 
L 536.425292 436.412414 
L 601.460257 436.412414 
L 666.495222 436.412414 
L 731.530187 436.412414 
L 796.565152 436.412414 
L 861.600117 436.412414 
L 926.635082 436.412414 
L 991.670047 436.412414 
L 1056.705012 436.412414 
L 1121.739977 436.412414 
L 1186.774942 436.412414 
L 1251.809907 436.412414 
L 1316.844872 436.412414 
L 1381.879837 436.412414 
L 1446.914802 436.412414 
L 1511.949767 436.412414 
L 1576.984733 436.412414 
L 1642.019698 436.412414 
L 1707.054663 436.412414 
L 1772.089628 436.412414 
L 1837.124593 436.412414 
L 1902.159558 436.412414 
L 1967.194523 436.412414 
L 2032.229488 436.412414 
L 2097.264453 436.412414 
L 2162.299418 436.412414 
L 2227.334383 436.412414 
L 2292.369348 436.412414 
L 2357.404313 436.412414 
L 2422.439278 436.412414 
L 2487.474243 436.412414 
L 2552.509208 436.412414 
L 2617.544173 436.412414 
L 2682.579138 436.412414 
L 2747.614103 436.412414 
L 2812.649068 436.412414 
" style="fill:none;stroke:#4c72b0;stroke-linecap:round;stroke-width:10;"/>
   </g>
   <g id="patch_3">
    <path d="M 149.46725 918.2895 
L 149.46725 102.8895 
" style="fill:none;stroke:#262626;stroke-linecap:square;stroke-linejoin:miter;"/>
   </g>
   <g id="patch_4">
    <path d="M 2939.46725 918.2895 
L 2939.46725 102.8895 
" style="fill:none;stroke:#262626;stroke-linecap:square;stroke-linejoin:miter;"/>
   </g>
   <g id="patch_5">
    <path d="M 149.46725 918.2895 
L 2939.46725 918.2895 
" style="fill:none;stroke:#262626;stroke-linecap:square;stroke-linejoin:miter;"/>
   </g>
   <g id="patch_6">
    <path d="M 149.46725 102.8895 
L 2939.46725 102.8895 
" style="fill:none;stroke:#262626;stroke-linecap:square;stroke-linejoin:miter;"/>
   </g>
   <g id="text_29">
    <!-- Demand Matching of DH Network and Geothermal Well Drawdown -->
    <g style="fill:#262626;" transform="translate(551.645 56.1195)scale(0.672 -0.672)">
     <defs>
      <path d="M 7.71875 0 
L 7.71875 71.578125 
L 32.375 71.578125 
Q 40.71875 71.578125 45.125 70.5625 
Q 51.265625 69.140625 55.609375 65.4375 
Q 61.28125 60.640625 64.078125 53.1875 
Q 66.890625 45.75 66.890625 36.1875 
Q 66.890625 28.03125 64.984375 21.734375 
Q 63.09375 15.4375 60.109375 11.296875 
Q 57.125 7.171875 53.578125 4.796875 
Q 50.046875 2.4375 45.046875 1.21875 
Q 40.046875 0 33.546875 0 
z
M 17.1875 8.453125 
L 32.46875 8.453125 
Q 39.546875 8.453125 43.578125 9.765625 
Q 47.609375 11.078125 50 13.484375 
Q 53.375 16.84375 55.25 22.53125 
Q 57.125 28.21875 57.125 36.328125 
Q 57.125 47.5625 53.4375 53.59375 
Q 49.75 59.625 44.484375 61.671875 
Q 40.671875 63.140625 32.234375 63.140625 
L 17.1875 63.140625 
z
" id="ArialMT-68"/>
      <path d="M 6.59375 0 
L 6.59375 51.859375 
L 14.453125 51.859375 
L 14.453125 44.578125 
Q 16.890625 48.390625 20.9375 50.703125 
Q 25 53.03125 30.171875 53.03125 
Q 35.9375 53.03125 39.625 50.640625 
Q 43.3125 48.25 44.828125 43.953125 
Q 50.984375 53.03125 60.84375 53.03125 
Q 68.5625 53.03125 72.703125 48.75 
Q 76.859375 44.484375 76.859375 35.59375 
L 76.859375 0 
L 68.109375 0 
L 68.109375 32.671875 
Q 68.109375 37.9375 67.25 40.25 
Q 66.40625 42.578125 64.15625 43.984375 
Q 61.921875 45.40625 58.890625 45.40625 
Q 53.421875 45.40625 49.796875 41.765625 
Q 46.1875 38.140625 46.1875 30.125 
L 46.1875 0 
L 37.40625 0 
L 37.40625 33.6875 
Q 37.40625 39.546875 35.25 42.46875 
Q 33.109375 45.40625 28.21875 45.40625 
Q 24.515625 45.40625 21.359375 43.453125 
Q 18.21875 41.5 16.796875 37.734375 
Q 15.375 33.984375 15.375 26.90625 
L 15.375 0 
z
" id="ArialMT-109"/>
      <path d="M 6.59375 0 
L 6.59375 51.859375 
L 14.5 51.859375 
L 14.5 44.484375 
Q 20.21875 53.03125 31 53.03125 
Q 35.6875 53.03125 39.625 51.34375 
Q 43.5625 49.65625 45.515625 46.921875 
Q 47.46875 44.1875 48.25 40.4375 
Q 48.734375 37.984375 48.734375 31.890625 
L 48.734375 0 
L 39.9375 0 
L 39.9375 31.546875 
Q 39.9375 36.921875 38.90625 39.578125 
Q 37.890625 42.234375 35.28125 43.8125 
Q 32.671875 45.40625 29.15625 45.40625 
Q 23.53125 45.40625 19.453125 41.84375 
Q 15.375 38.28125 15.375 28.328125 
L 15.375 0 
z
" id="ArialMT-110"/>
      <path d="M 40.234375 0 
L 40.234375 6.546875 
Q 35.296875 -1.171875 25.734375 -1.171875 
Q 19.53125 -1.171875 14.328125 2.25 
Q 9.125 5.671875 6.265625 11.796875 
Q 3.421875 17.921875 3.421875 25.875 
Q 3.421875 33.640625 6 39.96875 
Q 8.59375 46.296875 13.765625 49.65625 
Q 18.953125 53.03125 25.34375 53.03125 
Q 30.03125 53.03125 33.6875 51.046875 
Q 37.359375 49.078125 39.65625 45.90625 
L 39.65625 71.578125 
L 48.390625 71.578125 
L 48.390625 0 
z
M 12.453125 25.875 
Q 12.453125 15.921875 16.640625 10.984375 
Q 20.84375 6.0625 26.5625 6.0625 
Q 32.328125 6.0625 36.34375 10.765625 
Q 40.375 15.484375 40.375 25.140625 
Q 40.375 35.796875 36.265625 40.765625 
Q 32.171875 45.75 26.171875 45.75 
Q 20.3125 45.75 16.375 40.96875 
Q 12.453125 36.1875 12.453125 25.875 
z
" id="ArialMT-100"/>
      <path d="M 7.421875 0 
L 7.421875 71.578125 
L 21.6875 71.578125 
L 38.625 20.90625 
Q 40.96875 13.8125 42.046875 10.296875 
Q 43.265625 14.203125 45.84375 21.78125 
L 62.984375 71.578125 
L 75.734375 71.578125 
L 75.734375 0 
L 66.609375 0 
L 66.609375 59.90625 
L 45.796875 0 
L 37.25 0 
L 16.546875 60.9375 
L 16.546875 0 
z
" id="ArialMT-77"/>
      <path d="M 6.640625 61.46875 
L 6.640625 71.578125 
L 15.4375 71.578125 
L 15.4375 61.46875 
z
M 6.640625 0 
L 6.640625 51.859375 
L 15.4375 51.859375 
L 15.4375 0 
z
" id="ArialMT-105"/>
      <path d="M 4.984375 -4.296875 
L 13.53125 -5.5625 
Q 14.0625 -9.515625 16.5 -11.328125 
Q 19.78125 -13.765625 25.4375 -13.765625 
Q 31.546875 -13.765625 34.859375 -11.328125 
Q 38.1875 -8.890625 39.359375 -4.5 
Q 40.046875 -1.8125 39.984375 6.78125 
Q 34.234375 0 25.640625 0 
Q 14.9375 0 9.078125 7.71875 
Q 3.21875 15.4375 3.21875 26.21875 
Q 3.21875 33.640625 5.90625 39.90625 
Q 8.59375 46.1875 13.6875 49.609375 
Q 18.796875 53.03125 25.6875 53.03125 
Q 34.859375 53.03125 40.828125 45.609375 
L 40.828125 51.859375 
L 48.921875 51.859375 
L 48.921875 7.03125 
Q 48.921875 -5.078125 46.453125 -10.125 
Q 44 -15.1875 38.640625 -18.109375 
Q 33.296875 -21.046875 25.484375 -21.046875 
Q 16.21875 -21.046875 10.5 -16.875 
Q 4.78125 -12.703125 4.984375 -4.296875 
z
M 12.25 26.859375 
Q 12.25 16.65625 16.296875 11.96875 
Q 20.359375 7.28125 26.46875 7.28125 
Q 32.515625 7.28125 36.609375 11.9375 
Q 40.71875 16.609375 40.71875 26.5625 
Q 40.71875 36.078125 36.5 40.90625 
Q 32.28125 45.75 26.3125 45.75 
Q 20.453125 45.75 16.34375 40.984375 
Q 12.25 36.234375 12.25 26.859375 
z
" id="ArialMT-103"/>
      <path d="M 8.015625 0 
L 8.015625 71.578125 
L 17.484375 71.578125 
L 17.484375 42.1875 
L 54.6875 42.1875 
L 54.6875 71.578125 
L 64.15625 71.578125 
L 64.15625 0 
L 54.6875 0 
L 54.6875 33.734375 
L 17.484375 33.734375 
L 17.484375 0 
z
" id="ArialMT-72"/>
      <path d="M 7.625 0 
L 7.625 71.578125 
L 17.328125 71.578125 
L 54.9375 15.375 
L 54.9375 71.578125 
L 64.015625 71.578125 
L 64.015625 0 
L 54.296875 0 
L 16.703125 56.25 
L 16.703125 0 
z
" id="ArialMT-78"/>
      <path d="M 16.15625 0 
L 0.296875 51.859375 
L 9.375 51.859375 
L 17.625 21.921875 
L 20.703125 10.796875 
Q 20.90625 11.625 23.390625 21.484375 
L 31.640625 51.859375 
L 40.671875 51.859375 
L 48.4375 21.78125 
L 51.03125 11.859375 
L 54 21.875 
L 62.890625 51.859375 
L 71.4375 51.859375 
L 55.21875 0 
L 46.09375 0 
L 37.84375 31.0625 
L 35.84375 39.890625 
L 25.34375 0 
z
" id="ArialMT-119"/>
      <path d="M 6.640625 0 
L 6.640625 71.578125 
L 15.4375 71.578125 
L 15.4375 30.765625 
L 36.234375 51.859375 
L 47.609375 51.859375 
L 27.78125 32.625 
L 49.609375 0 
L 38.765625 0 
L 21.625 26.515625 
L 15.4375 20.5625 
L 15.4375 0 
z
" id="ArialMT-107"/>
      <path d="M 6.390625 0 
L 6.390625 71.578125 
L 15.1875 71.578125 
L 15.1875 0 
z
" id="ArialMT-108"/>
     </defs>
     <use xlink:href="#ArialMT-68"/>
     <use x="72.216797" xlink:href="#ArialMT-101"/>
     <use x="127.832031" xlink:href="#ArialMT-109"/>
     <use x="211.132812" xlink:href="#ArialMT-97"/>
     <use x="266.748047" xlink:href="#ArialMT-110"/>
     <use x="322.363281" xlink:href="#ArialMT-100"/>
     <use x="377.978516" xlink:href="#ArialMT-32"/>
     <use x="405.761719" xlink:href="#ArialMT-77"/>
     <use x="489.0625" xlink:href="#ArialMT-97"/>
     <use x="544.677734" xlink:href="#ArialMT-116"/>
     <use x="572.460938" xlink:href="#ArialMT-99"/>
     <use x="622.460938" xlink:href="#ArialMT-104"/>
     <use x="678.076172" xlink:href="#ArialMT-105"/>
     <use x="700.292969" xlink:href="#ArialMT-110"/>
     <use x="755.908203" xlink:href="#ArialMT-103"/>
     <use x="811.523438" xlink:href="#ArialMT-32"/>
     <use x="839.306641" xlink:href="#ArialMT-111"/>
     <use x="894.921875" xlink:href="#ArialMT-102"/>
     <use x="922.705078" xlink:href="#ArialMT-32"/>
     <use x="950.488281" xlink:href="#ArialMT-68"/>
     <use x="1022.705078" xlink:href="#ArialMT-72"/>
     <use x="1094.921875" xlink:href="#ArialMT-32"/>
     <use x="1122.705078" xlink:href="#ArialMT-78"/>
     <use x="1194.921875" xlink:href="#ArialMT-101"/>
     <use x="1250.537109" xlink:href="#ArialMT-116"/>
     <use x="1278.320312" xlink:href="#ArialMT-119"/>
     <use x="1350.537109" xlink:href="#ArialMT-111"/>
     <use x="1406.152344" xlink:href="#ArialMT-114"/>
     <use x="1439.453125" xlink:href="#ArialMT-107"/>
     <use x="1489.453125" xlink:href="#ArialMT-32"/>
     <use x="1517.236328" xlink:href="#ArialMT-97"/>
     <use x="1572.851562" xlink:href="#ArialMT-110"/>
     <use x="1628.466797" xlink:href="#ArialMT-100"/>
     <use x="1684.082031" xlink:href="#ArialMT-32"/>
     <use x="1711.865234" xlink:href="#ArialMT-71"/>
     <use x="1789.648438" xlink:href="#ArialMT-101"/>
     <use x="1845.263672" xlink:href="#ArialMT-111"/>
     <use x="1900.878906" xlink:href="#ArialMT-116"/>
     <use x="1928.662109" xlink:href="#ArialMT-104"/>
     <use x="1984.277344" xlink:href="#ArialMT-101"/>
     <use x="2039.892578" xlink:href="#ArialMT-114"/>
     <use x="2073.193359" xlink:href="#ArialMT-109"/>
     <use x="2156.494141" xlink:href="#ArialMT-97"/>
     <use x="2212.109375" xlink:href="#ArialMT-108"/>
     <use x="2234.326172" xlink:href="#ArialMT-32"/>
     <use x="2262.109375" xlink:href="#ArialMT-87"/>
     <use x="2354.744141" xlink:href="#ArialMT-101"/>
     <use x="2410.359375" xlink:href="#ArialMT-108"/>
     <use x="2432.576172" xlink:href="#ArialMT-108"/>
     <use x="2454.792969" xlink:href="#ArialMT-32"/>
     <use x="2482.576172" xlink:href="#ArialMT-68"/>
     <use x="2554.792969" xlink:href="#ArialMT-114"/>
     <use x="2588.09375" xlink:href="#ArialMT-97"/>
     <use x="2643.708984" xlink:href="#ArialMT-119"/>
     <use x="2715.925781" xlink:href="#ArialMT-100"/>
     <use x="2771.541016" xlink:href="#ArialMT-111"/>
     <use x="2827.15625" xlink:href="#ArialMT-119"/>
     <use x="2899.373047" xlink:href="#ArialMT-110"/>
    </g>
   </g>
   <g id="legend_1">
    <g id="patch_7">
     <path d="M 296.117641 1257.7195 
L 2792.816859 1257.7195 
Q 2803.816859 1257.7195 2803.816859 1246.7195 
L 2803.816859 1096.621062 
Q 2803.816859 1085.621062 2792.816859 1085.621062 
L 296.117641 1085.621062 
Q 285.117641 1085.621062 285.117641 1096.621062 
L 285.117641 1246.7195 
Q 285.117641 1257.7195 296.117641 1257.7195 
z
" style="fill:#ffffff;opacity:0.8;stroke:#cccccc;stroke-linejoin:miter;stroke-width:0.8;"/>
    </g>
    <g id="line2d_33">
     <path d="M 307.117641 1127.739031 
L 417.117641 1127.739031 
" style="fill:none;stroke:#c44e52;stroke-dasharray:37,16;stroke-dashoffset:0;stroke-width:10;"/>
    </g>
    <g id="line2d_34"/>
    <g id="text_30">
     <!-- Scenario 1 Heat Available -->
     <g style="fill:#262626;" transform="translate(461.117641 1146.989031)scale(0.55 -0.55)">
      <defs>
       <path d="M 4.5 23 
L 13.421875 23.78125 
Q 14.0625 18.40625 16.375 14.96875 
Q 18.703125 11.53125 23.578125 9.40625 
Q 28.46875 7.28125 34.578125 7.28125 
Q 39.984375 7.28125 44.140625 8.890625 
Q 48.296875 10.5 50.3125 13.296875 
Q 52.34375 16.109375 52.34375 19.4375 
Q 52.34375 22.796875 50.390625 25.3125 
Q 48.4375 27.828125 43.953125 29.546875 
Q 41.0625 30.671875 31.203125 33.03125 
Q 21.34375 35.40625 17.390625 37.5 
Q 12.25 40.1875 9.734375 44.15625 
Q 7.234375 48.140625 7.234375 53.078125 
Q 7.234375 58.5 10.296875 63.203125 
Q 13.375 67.921875 19.28125 70.359375 
Q 25.203125 72.796875 32.421875 72.796875 
Q 40.375 72.796875 46.453125 70.234375 
Q 52.546875 67.671875 55.8125 62.6875 
Q 59.078125 57.71875 59.328125 51.421875 
L 50.25 50.734375 
Q 49.515625 57.515625 45.28125 60.984375 
Q 41.0625 64.453125 32.8125 64.453125 
Q 24.21875 64.453125 20.28125 61.296875 
Q 16.359375 58.15625 16.359375 53.71875 
Q 16.359375 49.859375 19.140625 47.359375 
Q 21.875 44.875 33.421875 42.265625 
Q 44.96875 39.65625 49.265625 37.703125 
Q 55.515625 34.8125 58.484375 30.390625 
Q 61.46875 25.984375 61.46875 20.21875 
Q 61.46875 14.5 58.203125 9.4375 
Q 54.9375 4.390625 48.796875 1.578125 
Q 42.671875 -1.21875 35.015625 -1.21875 
Q 25.296875 -1.21875 18.71875 1.609375 
Q 12.15625 4.4375 8.421875 10.125 
Q 4.6875 15.828125 4.5 23 
z
" id="ArialMT-83"/>
       <path d="M -0.140625 0 
L 27.34375 71.578125 
L 37.546875 71.578125 
L 66.84375 0 
L 56.0625 0 
L 47.703125 21.6875 
L 17.78125 21.6875 
L 9.90625 0 
z
M 20.515625 29.390625 
L 44.78125 29.390625 
L 37.3125 49.21875 
Q 33.890625 58.25 32.234375 64.0625 
Q 30.859375 57.171875 28.375 50.390625 
z
" id="ArialMT-65"/>
       <path d="M 21 0 
L 1.265625 51.859375 
L 10.546875 51.859375 
L 21.6875 20.796875 
Q 23.484375 15.765625 25 10.359375 
Q 26.171875 14.453125 28.265625 20.21875 
L 39.796875 51.859375 
L 48.828125 51.859375 
L 29.203125 0 
z
" id="ArialMT-118"/>
       <path d="M 14.703125 0 
L 6.546875 0 
L 6.546875 71.578125 
L 15.328125 71.578125 
L 15.328125 46.046875 
Q 20.90625 53.03125 29.546875 53.03125 
Q 34.328125 53.03125 38.59375 51.09375 
Q 42.875 49.171875 45.625 45.671875 
Q 48.390625 42.1875 49.953125 37.25 
Q 51.515625 32.328125 51.515625 26.703125 
Q 51.515625 13.375 44.921875 6.09375 
Q 38.328125 -1.171875 29.109375 -1.171875 
Q 19.921875 -1.171875 14.703125 6.5 
z
M 14.59375 26.3125 
Q 14.59375 17 17.140625 12.84375 
Q 21.296875 6.0625 28.375 6.0625 
Q 34.125 6.0625 38.328125 11.0625 
Q 42.53125 16.0625 42.53125 25.984375 
Q 42.53125 36.140625 38.5 40.96875 
Q 34.46875 45.796875 28.765625 45.796875 
Q 23 45.796875 18.796875 40.796875 
Q 14.59375 35.796875 14.59375 26.3125 
z
" id="ArialMT-98"/>
      </defs>
      <use xlink:href="#ArialMT-83"/>
      <use x="66.699219" xlink:href="#ArialMT-99"/>
      <use x="116.699219" xlink:href="#ArialMT-101"/>
      <use x="172.314453" xlink:href="#ArialMT-110"/>
      <use x="227.929688" xlink:href="#ArialMT-97"/>
      <use x="283.544922" xlink:href="#ArialMT-114"/>
      <use x="316.845703" xlink:href="#ArialMT-105"/>
      <use x="339.0625" xlink:href="#ArialMT-111"/>
      <use x="394.677734" xlink:href="#ArialMT-32"/>
      <use x="422.460938" xlink:href="#ArialMT-49"/>
      <use x="478.076172" xlink:href="#ArialMT-32"/>
      <use x="505.859375" xlink:href="#ArialMT-72"/>
      <use x="578.076172" xlink:href="#ArialMT-101"/>
      <use x="633.691406" xlink:href="#ArialMT-97"/>
      <use x="689.306641" xlink:href="#ArialMT-116"/>
      <use x="717.089844" xlink:href="#ArialMT-32"/>
      <use x="739.373047" xlink:href="#ArialMT-65"/>
      <use x="804.322266" xlink:href="#ArialMT-118"/>
      <use x="854.322266" xlink:href="#ArialMT-97"/>
      <use x="909.9375" xlink:href="#ArialMT-105"/>
      <use x="932.154297" xlink:href="#ArialMT-108"/>
      <use x="954.371094" xlink:href="#ArialMT-97"/>
      <use x="1009.986328" xlink:href="#ArialMT-98"/>
      <use x="1065.601562" xlink:href="#ArialMT-108"/>
      <use x="1087.818359" xlink:href="#ArialMT-101"/>
     </g>
    </g>
    <g id="line2d_35">
     <path d="M 307.117641 1205.53825 
L 417.117641 1205.53825 
" style="fill:none;stroke:#1a1a1a;stroke-dasharray:37,16;stroke-dashoffset:0;stroke-width:10;"/>
    </g>
    <g id="line2d_36"/>
    <g id="text_31">
     <!-- Scenario 2 Heat Available -->
     <g style="fill:#262626;" transform="translate(461.117641 1224.78825)scale(0.55 -0.55)">
      <use xlink:href="#ArialMT-83"/>
      <use x="66.699219" xlink:href="#ArialMT-99"/>
      <use x="116.699219" xlink:href="#ArialMT-101"/>
      <use x="172.314453" xlink:href="#ArialMT-110"/>
      <use x="227.929688" xlink:href="#ArialMT-97"/>
      <use x="283.544922" xlink:href="#ArialMT-114"/>
      <use x="316.845703" xlink:href="#ArialMT-105"/>
      <use x="339.0625" xlink:href="#ArialMT-111"/>
      <use x="394.677734" xlink:href="#ArialMT-32"/>
      <use x="422.460938" xlink:href="#ArialMT-50"/>
      <use x="478.076172" xlink:href="#ArialMT-32"/>
      <use x="505.859375" xlink:href="#ArialMT-72"/>
      <use x="578.076172" xlink:href="#ArialMT-101"/>
      <use x="633.691406" xlink:href="#ArialMT-97"/>
      <use x="689.306641" xlink:href="#ArialMT-116"/>
      <use x="717.089844" xlink:href="#ArialMT-32"/>
      <use x="739.373047" xlink:href="#ArialMT-65"/>
      <use x="804.322266" xlink:href="#ArialMT-118"/>
      <use x="854.322266" xlink:href="#ArialMT-97"/>
      <use x="909.9375" xlink:href="#ArialMT-105"/>
      <use x="932.154297" xlink:href="#ArialMT-108"/>
      <use x="954.371094" xlink:href="#ArialMT-97"/>
      <use x="1009.986328" xlink:href="#ArialMT-98"/>
      <use x="1065.601562" xlink:href="#ArialMT-108"/>
      <use x="1087.818359" xlink:href="#ArialMT-101"/>
     </g>
    </g>
    <g id="line2d_37">
     <path d="M 1199.973891 1127.739031 
L 1309.973891 1127.739031 
" style="fill:none;stroke:#4c72b0;stroke-dasharray:37,16;stroke-dashoffset:0;stroke-width:10;"/>
    </g>
    <g id="line2d_38"/>
    <g id="text_32">
     <!-- Scenario 3 Heat Available -->
     <g style="fill:#262626;" transform="translate(1353.973891 1146.989031)scale(0.55 -0.55)">
      <use xlink:href="#ArialMT-83"/>
      <use x="66.699219" xlink:href="#ArialMT-99"/>
      <use x="116.699219" xlink:href="#ArialMT-101"/>
      <use x="172.314453" xlink:href="#ArialMT-110"/>
      <use x="227.929688" xlink:href="#ArialMT-97"/>
      <use x="283.544922" xlink:href="#ArialMT-114"/>
      <use x="316.845703" xlink:href="#ArialMT-105"/>
      <use x="339.0625" xlink:href="#ArialMT-111"/>
      <use x="394.677734" xlink:href="#ArialMT-32"/>
      <use x="422.460938" xlink:href="#ArialMT-51"/>
      <use x="478.076172" xlink:href="#ArialMT-32"/>
      <use x="505.859375" xlink:href="#ArialMT-72"/>
      <use x="578.076172" xlink:href="#ArialMT-101"/>
      <use x="633.691406" xlink:href="#ArialMT-97"/>
      <use x="689.306641" xlink:href="#ArialMT-116"/>
      <use x="717.089844" xlink:href="#ArialMT-32"/>
      <use x="739.373047" xlink:href="#ArialMT-65"/>
      <use x="804.322266" xlink:href="#ArialMT-118"/>
      <use x="854.322266" xlink:href="#ArialMT-97"/>
      <use x="909.9375" xlink:href="#ArialMT-105"/>
      <use x="932.154297" xlink:href="#ArialMT-108"/>
      <use x="954.371094" xlink:href="#ArialMT-97"/>
      <use x="1009.986328" xlink:href="#ArialMT-98"/>
      <use x="1065.601562" xlink:href="#ArialMT-108"/>
      <use x="1087.818359" xlink:href="#ArialMT-101"/>
     </g>
    </g>
    <g id="line2d_39">
     <path d="M 1199.973891 1205.53825 
L 1309.973891 1205.53825 
" style="fill:none;stroke:#c44e52;stroke-linecap:round;stroke-width:10;"/>
    </g>
    <g id="line2d_40"/>
    <g id="text_33">
     <!-- Annual DH Demand 1 -->
     <g style="fill:#262626;" transform="translate(1353.973891 1224.78825)scale(0.55 -0.55)">
      <defs>
       <path d="M 40.578125 0 
L 40.578125 7.625 
Q 34.515625 -1.171875 24.125 -1.171875 
Q 19.53125 -1.171875 15.546875 0.578125 
Q 11.578125 2.34375 9.640625 5 
Q 7.71875 7.671875 6.9375 11.53125 
Q 6.390625 14.109375 6.390625 19.734375 
L 6.390625 51.859375 
L 15.1875 51.859375 
L 15.1875 23.09375 
Q 15.1875 16.21875 15.71875 13.8125 
Q 16.546875 10.359375 19.234375 8.375 
Q 21.921875 6.390625 25.875 6.390625 
Q 29.828125 6.390625 33.296875 8.421875 
Q 36.765625 10.453125 38.203125 13.9375 
Q 39.65625 17.4375 39.65625 24.078125 
L 39.65625 51.859375 
L 48.4375 51.859375 
L 48.4375 0 
z
" id="ArialMT-117"/>
      </defs>
      <use xlink:href="#ArialMT-65"/>
      <use x="66.699219" xlink:href="#ArialMT-110"/>
      <use x="122.314453" xlink:href="#ArialMT-110"/>
      <use x="177.929688" xlink:href="#ArialMT-117"/>
      <use x="233.544922" xlink:href="#ArialMT-97"/>
      <use x="289.160156" xlink:href="#ArialMT-108"/>
      <use x="311.376953" xlink:href="#ArialMT-32"/>
      <use x="339.160156" xlink:href="#ArialMT-68"/>
      <use x="411.376953" xlink:href="#ArialMT-72"/>
      <use x="483.59375" xlink:href="#ArialMT-32"/>
      <use x="511.376953" xlink:href="#ArialMT-68"/>
      <use x="583.59375" xlink:href="#ArialMT-101"/>
      <use x="639.208984" xlink:href="#ArialMT-109"/>
      <use x="722.509766" xlink:href="#ArialMT-97"/>
      <use x="778.125" xlink:href="#ArialMT-110"/>
      <use x="833.740234" xlink:href="#ArialMT-100"/>
      <use x="889.355469" xlink:href="#ArialMT-32"/>
      <use x="917.138672" xlink:href="#ArialMT-49"/>
     </g>
    </g>
    <g id="line2d_41">
     <path d="M 2092.830141 1127.739031 
L 2202.830141 1127.739031 
" style="fill:none;stroke:#1a1a1a;stroke-linecap:round;stroke-width:10;"/>
    </g>
    <g id="line2d_42"/>
    <g id="text_34">
     <!-- Annual DH Demand 2 -->
     <g style="fill:#262626;" transform="translate(2246.830141 1146.989031)scale(0.55 -0.55)">
      <use xlink:href="#ArialMT-65"/>
      <use x="66.699219" xlink:href="#ArialMT-110"/>
      <use x="122.314453" xlink:href="#ArialMT-110"/>
      <use x="177.929688" xlink:href="#ArialMT-117"/>
      <use x="233.544922" xlink:href="#ArialMT-97"/>
      <use x="289.160156" xlink:href="#ArialMT-108"/>
      <use x="311.376953" xlink:href="#ArialMT-32"/>
      <use x="339.160156" xlink:href="#ArialMT-68"/>
      <use x="411.376953" xlink:href="#ArialMT-72"/>
      <use x="483.59375" xlink:href="#ArialMT-32"/>
      <use x="511.376953" xlink:href="#ArialMT-68"/>
      <use x="583.59375" xlink:href="#ArialMT-101"/>
      <use x="639.208984" xlink:href="#ArialMT-109"/>
      <use x="722.509766" xlink:href="#ArialMT-97"/>
      <use x="778.125" xlink:href="#ArialMT-110"/>
      <use x="833.740234" xlink:href="#ArialMT-100"/>
      <use x="889.355469" xlink:href="#ArialMT-32"/>
      <use x="917.138672" xlink:href="#ArialMT-50"/>
     </g>
    </g>
    <g id="line2d_43">
     <path d="M 2092.830141 1205.53825 
L 2202.830141 1205.53825 
" style="fill:none;stroke:#4c72b0;stroke-linecap:round;stroke-width:10;"/>
    </g>
    <g id="line2d_44"/>
    <g id="text_35">
     <!-- Annual DH Demand 3 -->
     <g style="fill:#262626;" transform="translate(2246.830141 1224.78825)scale(0.55 -0.55)">
      <use xlink:href="#ArialMT-65"/>
      <use x="66.699219" xlink:href="#ArialMT-110"/>
      <use x="122.314453" xlink:href="#ArialMT-110"/>
      <use x="177.929688" xlink:href="#ArialMT-117"/>
      <use x="233.544922" xlink:href="#ArialMT-97"/>
      <use x="289.160156" xlink:href="#ArialMT-108"/>
      <use x="311.376953" xlink:href="#ArialMT-32"/>
      <use x="339.160156" xlink:href="#ArialMT-68"/>
      <use x="411.376953" xlink:href="#ArialMT-72"/>
      <use x="483.59375" xlink:href="#ArialMT-32"/>
      <use x="511.376953" xlink:href="#ArialMT-68"/>
      <use x="583.59375" xlink:href="#ArialMT-101"/>
      <use x="639.208984" xlink:href="#ArialMT-109"/>
      <use x="722.509766" xlink:href="#ArialMT-97"/>
      <use x="778.125" xlink:href="#ArialMT-110"/>
      <use x="833.740234" xlink:href="#ArialMT-100"/>
      <use x="889.355469" xlink:href="#ArialMT-32"/>
      <use x="917.138672" xlink:href="#ArialMT-51"/>
     </g>
    </g>
   </g>
  </g>
 </g>
 <defs>
  <clipPath id="pa482292bd0">
   <rect height="815.4" width="2790" x="149.46725" y="102.8895"/>
  </clipPath>
 </defs>
</svg>
